<?xml version="1.0" encoding="UTF-8" standalone="no"?>
<svg width="50px" height="50px" viewBox="0 0 50 50" version="1.1" xmlns="http://www.w3.org/2000/svg" xmlns:xlink="http://www.w3.org/1999/xlink" xmlns:sketch="http://www.bohemiancoding.com/sketch/ns">
    <!-- Generator: Sketch 3.3.2 (12043) - http://www.bohemiancoding.com/sketch -->
    <title>nav-logo</title>
    <desc>Created with Sketch.</desc>
    <defs></defs>
    <g id="Page-1" stroke="none" stroke-width="1" fill="none" fill-rule="evenodd" sketch:type="MSPage">
        <g id="nav-logo" sketch:type="MSArtboardGroup">
            <rect id="bg" fill-opacity="0" fill="#D8D8D8" sketch:type="MSShapeGroup" x="0" y="0" width="50" height="50"></rect>
            <path d="M25.0055554,40.5084994 C29.5232447,34.8317795 32.3905551,32.7711226 32.3905551,28.6924999 C32.3905551,24.6138771 29.0841781,21.3075001 25.0055554,21.3075001 C20.9269327,21.3075001 17.6205557,24.6138771 17.6205557,28.6924999 C17.6205557,32.7711226 20.6063,34.8317795 25.0055554,40.5084994 Z M25.0055554,31.6464997 C26.6370045,31.6464997 27.9595553,30.3239489 27.9595553,28.6924999 C27.9595553,27.0610508 26.6370045,25.7385 25.0055554,25.7385 C23.3741063,25.7385 22.0515555,27.0610508 22.0515555,28.6924999 C22.0515555,30.3239489 23.3741063,31.6464997 25.0055554,31.6464997 Z M23.5285555,10.9748001 C23.5285555,10.1555964 24.1841438,9.49150059 25.0055554,9.49150059 C25.82128,9.49150059 26.4825554,10.1575909 26.4825554,10.9748001 L26.4825554,16.8702008 C26.4825554,17.6894044 25.826967,18.3535003 25.0055554,18.3535003 C24.1898309,18.3535003 23.5285555,17.6874099 23.5285555,16.8702008 L23.5285555,10.9748001 Z M11.3560859,17.0601449 C10.7768214,16.4808804 10.7708057,15.5477228 11.3516314,14.9668971 C11.9284358,14.3900927 12.8670251,14.3934974 13.4448792,14.9713516 L17.613557,19.1400293 C18.1928215,19.7192938 18.1988372,20.6524514 17.6180115,21.2332772 C17.0412071,21.8100815 16.1026178,21.8066769 15.5247637,21.2288227 L11.3560859,17.0601449 Z M36.5571615,14.9713516 C37.136426,14.3920871 38.0695836,14.3860714 38.6504093,14.9668971 C39.2272137,15.5437015 39.223809,16.4822907 38.6459549,17.0601449 L34.4772771,21.2288227 C33.8980126,21.8080872 32.964855,21.8141029 32.3840293,21.2332772 C31.8072249,20.6564728 31.8106296,19.7178835 32.3884837,19.1400293 L36.5571615,14.9713516 Z" id="Oval-1-Copy" fill-opacity="0.87" fill="#6FCDEB" sketch:type="MSShapeGroup"></path>
        </g>
    </g>
</svg>