<?xml version="1.0" encoding="UTF-8" standalone="no"?>
<svg width="50px" height="50px" viewBox="0 0 50 50" version="1.1" xmlns="http://www.w3.org/2000/svg" xmlns:xlink="http://www.w3.org/1999/xlink" xmlns:sketch="http://www.bohemiancoding.com/sketch/ns">
    <!-- Generator: Sketch 3.3.3 (12081) - http://www.bohemiancoding.com/sketch -->
    <title>menu-logo</title>
    <desc>Created with Sketch.</desc>
    <defs></defs>
    <g id="Page-1" stroke="none" stroke-width="1" fill="none" fill-rule="evenodd" sketch:type="MSPage">
        <g id="menu-logo" sketch:type="MSArtboardGroup">
            <rect id="bg" fill-opacity="0" fill="#D8D8D8" sketch:type="MSShapeGroup" x="0" y="0" width="50" height="50"></rect>
            <path d="M25.0067384,40.5084994 C29.5244277,34.8317795 32.3917381,32.7711226 32.3917381,28.6924999 C32.3917381,24.6138771 29.0853611,21.3075001 25.0067384,21.3075001 C20.9281156,21.3075001 17.6217386,24.6138771 17.6217386,28.6924999 C17.6217386,32.7711226 20.6074829,34.8317795 25.0067384,40.5084994 Z M25.0067384,31.6464997 C26.6381875,31.6464997 27.9607383,30.3239489 27.9607383,28.6924999 C27.9607383,27.0610508 26.6381875,25.7385 25.0067384,25.7385 C23.3752893,25.7385 22.0527385,27.0610508 22.0527385,28.6924999 C22.0527385,30.3239489 23.3752893,31.6464997 25.0067384,31.6464997 Z M23.5297384,10.9748001 C23.5297384,10.1555964 24.1853267,9.49150059 25.0067384,9.49150059 C25.8224629,9.49150059 26.4837383,10.1575909 26.4837383,10.9748001 L26.4837383,16.8702008 C26.4837383,17.6894044 25.82815,18.3535003 25.0067384,18.3535003 C24.1910138,18.3535003 23.5297384,17.6874099 23.5297384,16.8702008 L23.5297384,10.9748001 Z M11.3572688,17.0601449 C10.7780043,16.4808804 10.7719886,15.5477228 11.3528144,14.9668971 C11.9296187,14.3900927 12.868208,14.3934974 13.4460622,14.9713516 L17.61474,19.1400293 C18.1940045,19.7192938 18.2000202,20.6524514 17.6191944,21.2332772 C17.0423901,21.8100815 16.1038008,21.8066769 15.5259466,21.2288227 L11.3572688,17.0601449 Z M36.5583445,14.9713516 C37.1376089,14.3920871 38.0707665,14.3860714 38.6515923,14.9668971 C39.2283966,15.5437015 39.224992,16.4822907 38.6471378,17.0601449 L34.47846,21.2288227 C33.8991955,21.8080872 32.9660379,21.8141029 32.3852122,21.2332772 C31.8084079,20.6564728 31.8118125,19.7178835 32.3896667,19.1400293 L36.5583445,14.9713516 Z" id="Oval-1" fill-opacity="0.87" fill="#6FCDEB" sketch:type="MSShapeGroup"></path>
        </g>
    </g>
</svg>