<?xml version="1.0" encoding="UTF-8" standalone="no"?>
<svg width="50px" height="50px" viewBox="0 0 50 50" version="1.1" xmlns="http://www.w3.org/2000/svg" xmlns:xlink="http://www.w3.org/1999/xlink" xmlns:sketch="http://www.bohemiancoding.com/sketch/ns">
    <!-- Generator: Sketch 3.3.2 (12043) - http://www.bohemiancoding.com/sketch -->
    <title>nav-logo</title>
    <desc>Created with Sketch.</desc>
    <defs></defs>
    <g id="Page-1" stroke="none" stroke-width="1" fill="none" fill-rule="evenodd" sketch:type="MSPage">
        <g id="nav-logo" sketch:type="MSArtboardGroup">
            <rect id="bg" fill-opacity="0" fill="#D8D8D8" sketch:type="MSShapeGroup" x="0" y="0" width="50" height="50"></rect>
            <path d="M17.8065283,36.8140164 C20.8894753,33.7310695 24.051607,33.0986431 27.2848315,34.1763846 C28.4427415,34.5623545 29.5310674,35.1483762 30.5097082,35.8474053 C31.0931304,36.2641354 31.5008209,36.6174672 31.6973702,36.8140165 C32.2453488,37.361995 33.1337977,37.361995 33.6817762,36.8140164 C34.2297548,36.2660378 34.2297548,35.377589 33.6817762,34.8296104 C33.382224,34.5300583 32.8597242,34.0772251 32.1408799,33.5637649 C30.9490766,32.7124769 29.6189077,31.9962322 28.1722848,31.5140245 C23.9639867,30.1112586 19.6845961,30.9671367 15.8221223,34.8296105 C15.2741437,35.377589 15.2741437,36.2660379 15.8221223,36.8140164 C16.3701009,37.361995 17.2585497,37.361995 17.8065283,36.8140164 Z M12.3494118,26.5661201 L6.39619385,20.6129022 C5.84821527,20.0649236 4.95976644,20.0649236 4.41178786,20.6129022 C3.86380928,21.1608807 3.86380928,22.0493296 4.41178786,22.5973081 L10.3650058,28.5505261 C10.9129844,29.0985047 11.8014332,29.0985047 12.3494118,28.5505261 C12.8973904,28.0025475 12.8973904,27.1140987 12.3494118,26.5661201 Z M25.6590347,22.5973081 L25.6590347,14.1781866 C25.6590347,13.4032278 25.0308065,12.7749996 24.2558478,12.7749996 C23.480889,12.7749996 22.8526608,13.4032278 22.8526608,14.1781866 L22.8526608,22.5973081 C22.8526608,23.3722669 23.480889,24.0004951 24.2558478,24.0004951 C25.0308065,24.0004951 25.6590347,23.3722669 25.6590347,22.5973081 Z M39.6349942,28.0544246 L45.5882121,22.1012066 C46.1361907,21.5532281 46.1361907,20.6647792 45.5882121,20.1168007 C45.0402336,19.5688221 44.1517847,19.5688221 43.6038062,20.1168007 L37.6505882,26.0700186 C37.1026096,26.6179972 37.1026096,27.506446 37.6505882,28.0544246 C38.1985668,28.6024032 39.0870156,28.6024032 39.6349942,28.0544246 Z" id="Shape-Copy" fill-opacity="0.87" fill="#6FCDEB" sketch:type="MSShapeGroup"></path>
        </g>
    </g>
</svg>